<?xml version="1.0" encoding="utf-8"?>
<!-- Generator: Adobe Illustrator 19.1.0, SVG Export Plug-In . SVG Version: 6.00 Build 0)  -->
<svg version="1.0" id="Layer_1" xmlns="http://www.w3.org/2000/svg" xmlns:xlink="http://www.w3.org/1999/xlink" x="0px" y="0px"
	 viewBox="0 0 192.8 40" style="enable-background:new 0 0 192.8 40;" xml:space="preserve">
<style type="text/css">
	.st0{fill:#007fd2;}
</style>
<g>
	<g>
		<path class="st0" d="M17.6,9c-0.1-0.1-0.2-0.2-0.4-0.2c-0.1,0-0.2,0.1-0.3,0.1c-1.1,0.8-2.5,4.4-3.7,9l1.1,0c2.1,0,4.2,0,6.4,0.1
			c-0.6-2.1-1.1-4-1.6-5.5C18.4,10.4,17.9,9.4,17.6,9z"/>
		<path class="st0" d="M20,0C9,0,0,9,0,20c0,11,9,20,20,20s20-9,20-20C40,9,31,0,20,0z M34.4,20.4C34.4,20.4,34.4,20.4,34.4,20.4
			C34.4,20.4,34.3,20.4,34.4,20.4C34.3,20.4,34.3,20.4,34.4,20.4c-0.1,0.1-0.1,0.1-0.1,0.1c0,0,0,0,0,0c0,0,0,0,0,0
			c-0.1,0.1-0.3,0.1-0.5,0.1c0,0-9.5,0-9.5,0c0.1,0.3,0.2,0.7,0.2,1.1c0.5,2.2,1.9,8.2,3.4,8.2l0,0l0,0l0,0c1.1,0,1.7-1.7,3-5.3l0,0
			c0.2-0.6,0.4-1.2,0.7-1.9l0.1-0.2l0,0c0.1-0.2,0.2-0.3,0.4-0.3c0.3,0,0.5,0.2,0.5,0.5c0,0,0,0.1,0,0.1l0,0l-0.1,0.2
			c-0.1,0.4-0.3,1-0.4,1.7c-0.8,3.2-1.9,7.9-4.9,7.9l0,0c-1.9,0-3.1-3.1-3.5-4.4c-0.9-2.4-1.6-5-2.3-7.6h-8.7l-1.8,5.8l0,0
			c-0.2,0.3-0.5,0.4-0.8,0.4c-0.5,0-0.9-0.4-0.9-0.9l0,0l0.1-0.7c0.3-1.5,0.5-3,0.9-4.6H6.4l0,0c-0.7-0.1-1.2-0.7-1.2-1.4
			c0-0.7,0.5-1.2,1.1-1.4c0.1,0,0.2,0,0.4,0c0.1,0,0.1,0,0.2,0c1.2,0,2.4,0,3.8,0.1c1.9-7.8,4.1-11.8,6.6-11.8c2.7,0,4.6,6,6.2,11.9
			l0,0c3.2,0.1,6.7,0.2,10,0.4l0.1,0c0.1,0,0.1,0,0.2,0l0,0c0,0,0,0,0,0c0,0,0,0,0,0c0.5,0.1,0.8,0.5,0.8,1
			C34.8,19.9,34.6,20.2,34.4,20.4z"/>
	</g>
	<g>
		<path class="st0" d="M51.1,25l-1.6,3.9h-4.6l8.8-20.5h4.1l8.7,20.5h-4.6L60.3,25H51.1z M55.7,13.6l-3,7.4h6L55.7,13.6z"/>
		<path class="st0" d="M92.4,21.1v7.9h-4.2v-7.5c0-2.3-1.1-3.5-3.1-3.5c-0.9,0-1.8,0.4-2.7,1.6c0.1,0.5,0.1,1,0.1,1.6v7.9h-4.2v-7.5
			c0-2.3-1.1-3.5-3.1-3.5c-0.8,0-1.7,0.5-2.5,1.6v9.4h-4.2V14.6h4.2v0.9c0.9-0.8,1.9-1.3,3.5-1.3c1.8,0,3.4,0.7,4.6,2
			c1.5-1.4,3-2,5.2-2C89.7,14.1,92.4,16.9,92.4,21.1z"/>
		<path class="st0" d="M110.7,21.8c0,4.2-3.2,7.4-7.1,7.4c-1.6,0-3-0.4-4.1-1.1v7.7h-4.2V14.6h4.2v0.8c1.1-0.7,2.5-1.1,4.1-1.1
			C107.5,14.3,110.7,17.6,110.7,21.8z M106.6,21.8c0-2.1-1.6-4-3.7-4c-1.2,0-2.5,0.4-3.4,1.7V24c0.9,1.2,2.2,1.6,3.4,1.6
			C105.1,25.7,106.6,23.9,106.6,21.8z"/>
		<path class="st0" d="M117.2,28.9H113V7.7h4.2V28.9z"/>
		<path class="st0" d="M120.9,9.5c0-1.4,1.1-2.5,2.5-2.5c1.4,0,2.5,1,2.5,2.5c0,1.4-1.1,2.4-2.5,2.4C122,11.9,120.9,10.9,120.9,9.5z
			 M125.5,14.6v14.3h-4.2V14.6H125.5z"/>
		<path class="st0" d="M140.6,28.7c-1.7,0.5-2.5,0.7-3.9,0.7c-3.5,0-5.7-2.5-5.7-6.2v-5.1h-3v-3.5h3V9.5h4.1v5.1h5.2v3.5h-5.2v5.1
			c0,1.6,1,2.4,2.5,2.4c0.8,0,1.6-0.2,2.4-0.4L140.6,28.7z"/>
		<path class="st0" d="M157.3,28.9h-4.2v-1c-1.2,0.9-2.5,1.5-4.1,1.5c-3.8,0-6.3-2.7-6.3-6.9v-7.9h4.2v7.5c0,2.3,1.1,3.5,3.1,3.5
			c1,0,2.2-0.6,3.1-1.8v-9.2h4.2V28.9z"/>
		<path class="st0" d="M175,28.9h-4.2v-0.8c-1.1,0.7-2.5,1.1-4.1,1.1c-3.9,0-7.1-3.3-7.1-7.5c0-4.2,3.2-7.4,7.1-7.4
			c1.6,0,3,0.4,4.1,1.1V7.7h4.2V28.9z M170.8,24v-4.6c-0.9-1.2-2.2-1.6-3.4-1.6c-2.2,0-3.7,1.8-3.7,3.9c0,2.1,1.5,4,3.7,4
			C168.7,25.7,169.9,25.3,170.8,24z"/>
		<path class="st0" d="M191.9,22.8h-10.6c0.3,1.7,1.4,3,3.7,3c1.2,0,2-0.4,2.4-1.1h4.3c-0.8,2.8-3.5,4.6-6.8,4.6
			c-4.6,0-7.7-3.3-7.7-7.6c0-4.4,3.1-7.6,7.6-7.6c4.1,0,7.1,2.9,7.1,7.3C191.9,22.1,191.9,22.4,191.9,22.8z M181.3,20.4h6.5
			c-0.2-1.8-1.3-2.8-3-2.8C182.8,17.6,181.7,18.8,181.3,20.4z"/>
	</g>
</g>
</svg>
